<svg version="1.1" id="Layer_1" xmlns="http://www.w3.org/2000/svg" xmlns:xlink="http://www.w3.org/1999/xlink" x="0px" y="0px" viewBox="0 0 40 40" style="enable-background:new 0 0 40 40;" xml:space="preserve"> <g> <g> <path style="fill:#C2E8FF;" d="M4.433,22.306l-0.176-0.205C2.453,20.001,1.5,17.546,1.5,15C1.5,8.107,8.453,2.5,17,2.5 S32.5,8.107,32.5,15S25.547,27.5,17,27.5c-2.527,0-5.044-0.508-7.275-1.468L9.55,25.957l-6.809,2.269L4.433,22.306z"></path> </g> <g> <path style="fill:#7496C4;" d="M17,3c8.271,0,15,5.383,15,12s-6.729,12-15,12c-2.46,0-4.907-0.494-7.078-1.428l-0.35-0.151 l-0.361,0.12l-5.728,1.909l1.357-4.75l0.148-0.518l-0.351-0.409C2.912,19.767,2,17.424,2,15C2,8.383,8.729,3,17,3 M17,2 C8.163,2,1,7.82,1,15c0,2.763,1.069,5.32,2.878,7.427L2,29l7.527-2.509C11.758,27.451,14.299,28,17,28c8.837,0,16-5.82,16-13 S25.837,2,17,2L17,2z"></path> </g> </g> <g> <g> <path style="fill:#F2FAFF;" d="M32.484,35.343l-0.208,0.089C30.623,36.141,28.848,36.5,27,36.5c-6.341,0-11.5-4.262-11.5-9.5 s5.159-9.5,11.5-9.5s11.5,4.262,11.5,9.5c0,1.673-0.546,3.327-1.58,4.784l-0.131,0.186l1.479,6.128L32.484,35.343z"></path> </g> <g> <path style="fill:#788B9C;" d="M27,18c6.065,0,11,4.037,11,9c0,1.568-0.514,3.122-1.488,4.495l-0.263,0.371l0.107,0.442 l1.18,4.887l-4.632-2.206l-0.408-0.194l-0.416,0.178C30.488,35.654,28.779,36,27,36c-6.065,0-11-4.037-11-9S20.935,18,27,18 M27,17c-6.627,0-12,4.477-12,10c0,5.523,5.373,10,12,10c1.974,0,3.831-0.404,5.473-1.108L39,39l-1.672-6.927 C38.384,30.585,39,28.854,39,27C39,21.477,33.627,17,27,17L27,17z"></path> </g> </g> <circle style="fill:#424E5C;" cx="22.5" cy="25.5" r="1.5"></circle> <circle style="fill:#424E5C;" cx="31.5" cy="25.5" r="1.5"></circle> <circle style="fill:#424E5C;" cx="12" cy="11" r="2"></circle> <circle style="fill:#424E5C;" cx="22" cy="11" r="2"></circle> </svg>